<?xml version="1.0" standalone="no"?>
<!DOCTYPE svg PUBLIC "-//W3C//DTD SVG 20010904//EN"
 "http://www.w3.org/TR/2001/REC-SVG-20010904/DTD/svg10.dtd">
<svg version="1.0" xmlns="http://www.w3.org/2000/svg"
 width="1024.000000pt" height="1024.000000pt" viewBox="0 0 1024.000000 1024.000000"
 preserveAspectRatio="xMidYMid meet">
<metadata>
Created by potrace 1.14, written by Peter Selinger 2001-2017
</metadata>
<g transform="translate(0.000000,1024.000000) scale(0.100000,-0.100000)"
fill="#000000" stroke="none">
<path d="M4885 9115 c-11 -2 -76 -9 -145 -15 -1544 -143 -2897 -1217 -3406
-2704 -90 -262 -155 -549 -190 -841 -26 -210 -26 -717 -1 -925 151 -1233 810
-2278 1871 -2968 72 -46 143 -93 157 -102 43 -30 308 -166 399 -206 482 -207
1018 -314 1580 -314 478 0 853 61 1304 211 842 281 1582 854 2081 1609 297
451 496 944 599 1485 53 278 61 376 61 745 0 384 -9 488 -70 795 -120 598
-373 1166 -716 1605 -351 448 -783 827 -1248 1094 -488 281 -966 439 -1546
512 -118 15 -672 29 -730 19z m625 -1230 c664 -86 1224 -359 1691 -824 181
-182 289 -316 418 -518 244 -385 373 -791 412 -1300 25 -331 -30 -738 -147
-1080 -171 -505 -525 -983 -987 -1332 -369 -279 -757 -451 -1202 -532 -686
-124 -1386 -14 -1957 308 -137 78 -277 165 -277 173 0 3 19 14 42 24 67 31
184 104 283 177 l92 67 128 -63 c366 -180 710 -258 1139 -258 417 0 804 86
1114 246 90 47 102 50 192 56 80 5 106 12 161 39 102 50 159 107 213 215 37
71 63 108 119 162 197 192 387 463 500 713 128 283 200 626 198 943 -1 110 1
121 29 180 47 99 51 195 11 246 -17 22 -17 21 -17 -55 0 -91 -18 -129 -117
-244 -90 -104 -189 -179 -510 -384 -76 -48 -78 -50 -88 -104 -6 -30 -29 -111
-51 -180 l-41 -124 7 -136 c3 -74 2 -268 -3 -430 -9 -262 -12 -303 -32 -365
-27 -83 -71 -154 -136 -217 -64 -61 -130 -90 -221 -96 -198 -13 -365 102 -423
292 -13 42 -27 73 -31 69 -5 -5 -13 -59 -19 -121 -17 -185 -79 -315 -188 -392
-80 -58 -134 -73 -250 -68 -82 2 -106 7 -154 31 -105 51 -197 175 -216 290
l-7 42 -55 3 c-30 1 -129 11 -219 23 -120 15 -188 18 -252 13 l-88 -6 -58 55
c-41 39 -77 62 -123 80 -36 13 -97 40 -137 60 -50 25 -73 33 -76 24 -2 -7 -39
-58 -80 -114 -81 -108 -214 -246 -309 -319 -181 -140 -440 -264 -552 -264 -79
0 -151 49 -175 119 -16 50 -15 3712 2 3761 15 42 68 80 112 80 37 0 171 -52
260 -100 129 -71 273 -179 402 -304 85 -81 75 -81 200 11 314 233 694 353
1118 353 192 0 331 -20 504 -71 35 -10 67 -19 71 -19 4 0 30 15 56 33 82 56
137 72 244 72 80 -1 104 -5 151 -27 100 -46 172 -126 209 -232 l18 -51 6 40
c29 178 68 268 157 361 85 87 162 126 269 132 180 10 312 -62 385 -211 78
-161 66 -348 -27 -417 -43 -32 -131 -39 -181 -15 -19 9 -63 44 -96 78 -33 34
-63 58 -67 55 -14 -14 -25 -269 -22 -515 l3 -258 51 -140 c29 -77 57 -173 64
-212 8 -41 18 -73 25 -73 6 0 69 38 139 84 211 140 317 186 422 186 l42 0 -24
88 c-52 188 -160 426 -268 591 l-55 84 36 59 c33 53 37 68 41 141 10 196 -66
358 -213 453 -129 82 -286 84 -434 4 -30 -17 -59 -30 -64 -30 -5 0 -52 27
-105 59 -357 219 -744 338 -1210 370 -215 15 -509 -11 -739 -65 -367 -86 -659
-226 -984 -470 l-135 -102 -70 34 c-156 77 -267 65 -315 -33 -23 -46 -24 -57
-24 -268 l0 -220 -56 -95 c-256 -431 -356 -920 -290 -1420 43 -323 148 -625
296 -855 25 -38 46 -76 46 -85 3 -29 -3 -665 -6 -668 -6 -6 -75 72 -168 191
-381 487 -581 1076 -580 1712 1 528 132 996 398 1431 373 609 987 1082 1655
1273 161 46 355 84 515 100 61 6 124 13 140 15 65 9 427 -3 545 -19z m1682
-1732 c24 -24 32 -42 35 -80 7 -85 -41 -137 -125 -136 -81 1 -132 51 -132 128
0 82 51 128 138 122 44 -3 59 -9 84 -34z"/>
<path d="M6780 6966 c-126 -34 -233 -157 -277 -319 -15 -53 -18 -116 -18 -447
0 -343 19 -1107 31 -1201 3 -26 -1 -40 -14 -52 -31 -27 -545 -357 -557 -357
-16 0 -24 249 -31 965 -6 628 1 789 34 834 35 47 58 40 136 -41 86 -90 113
-108 165 -108 31 0 44 6 65 30 64 77 39 275 -49 378 -39 46 -93 79 -165 99
-51 14 -70 15 -121 5 -173 -32 -276 -132 -325 -317 -17 -63 -19 -111 -19 -500
0 -429 6 -705 25 -1094 5 -113 11 -256 13 -318 l5 -112 -152 -99 c-83 -54
-218 -141 -301 -193 -413 -258 -581 -397 -647 -536 -36 -76 -32 -115 13 -133
72 -30 231 45 561 263 264 174 528 340 533 335 7 -7 14 -110 21 -314 5 -173 4
-209 -10 -259 -21 -70 -61 -115 -104 -115 -45 0 -54 20 -62 138 -8 116 -13
136 -43 170 -44 49 -120 19 -177 -69 -47 -73 -64 -140 -58 -233 11 -167 121
-296 279 -325 62 -11 140 4 209 39 48 25 117 101 143 158 45 103 49 146 54
575 l5 409 131 86 c73 47 204 132 292 188 l160 102 6 -37 c9 -48 24 -504 24
-713 0 -185 -4 -197 -75 -245 -40 -28 -42 -28 -71 -5 -20 17 -23 29 -25 111
-3 96 -16 154 -42 184 -23 26 -88 22 -128 -8 -41 -31 -89 -129 -103 -210 -27
-151 48 -317 173 -383 45 -24 62 -27 151 -27 92 0 104 2 153 29 88 49 143 127
177 252 23 87 36 475 29 880 l-7 341 136 89 c75 49 175 114 223 144 236 149
364 266 429 395 35 68 37 76 25 105 -15 35 -43 45 -102 36 -91 -15 -202 -75
-491 -267 -115 -77 -212 -139 -217 -139 -14 0 -20 61 -19 200 0 74 -3 279 -6
455 -8 378 5 767 26 810 34 68 78 59 155 -33 71 -83 98 -102 151 -102 34 0 46
5 67 31 14 17 29 43 32 57 3 15 7 35 9 45 2 11 -1 47 -6 80 -36 225 -213 349
-419 293z"/>
<path d="M3152 6772 c-7 -5 -17 -23 -22 -41 -6 -21 -10 -738 -10 -1850 -1
-1681 0 -1820 15 -1859 20 -49 39 -57 118 -50 188 18 530 232 704 441 65 78
193 258 193 271 0 3 14 29 31 58 93 158 183 421 224 658 85 488 6 1031 -211
1450 -167 325 -413 597 -704 778 -188 117 -304 167 -338 144z m415 -634 c180
-174 320 -441 398 -762 43 -176 57 -308 62 -567 5 -226 3 -273 -16 -405 -35
-240 -78 -389 -158 -549 -64 -130 -116 -199 -217 -288 -76 -66 -94 -78 -120
-75 -21 2 -35 11 -43 28 -17 33 -19 2630 -3 2661 6 10 15 19 21 19 6 0 40 -28
76 -62z"/>
<path d="M3530 5997 c0 -42 2 -77 4 -77 2 0 16 21 31 46 l27 46 -31 31 -31 32
0 -78z"/>
<path d="M3529 4235 c-3 -19 3 -650 6 -653 2 -2 23 11 48 30 56 42 138 144
179 225 l32 61 -75 89 c-65 75 -108 134 -176 239 -6 11 -13 15 -14 9z"/>
<path d="M5154 5412 c-39 -25 -73 -102 -86 -196 -7 -54 -6 -109 8 -233 14
-135 15 -177 6 -244 -27 -191 -124 -292 -201 -210 -49 52 -60 117 -65 386 -4
187 -18 251 -71 320 -43 58 -119 73 -167 35 -54 -42 -62 -85 -64 -325 -2 -311
21 -535 62 -618 117 -231 475 -290 652 -109 105 109 146 268 158 617 8 264 -9
414 -59 511 -38 74 -114 103 -173 66z"/>
<path d="M6454 3856 c-3 -13 -2 -59 3 -103 l9 -78 12 40 c18 60 16 165 -3 165
-8 0 -17 -11 -21 -24z"/>
<path d="M7075 6153 c-32 -8 -54 -33 -61 -69 -17 -89 64 -145 136 -94 55 39
46 130 -16 156 -18 8 -35 13 -36 13 -2 -1 -12 -4 -23 -6z m18 -33 c-19 -8 -21
-15 -18 -64 2 -37 -1 -56 -9 -56 -7 0 -11 23 -11 65 l0 65 30 -1 c27 0 28 -1
8 -9z m50 -12 c2 -7 0 -21 -4 -30 -5 -10 -5 -28 1 -43 13 -33 13 -35 -2 -35
-7 1 -20 16 -29 35 -13 28 -14 35 -2 39 7 3 13 15 13 26 0 22 16 27 23 8z"/>
</g>
</svg>
